{
  "title": "Mission Impossible 5 - Rogue Nation (2015) HQTS - 720p - Hindi D",
  "uid": 12226845,
  "size": 1053138082,
  "categoryP": "video",
  "categoryS": "movies",
  "magnet": "?xt=urn:btih:dec371104e60cdc56f816d0a3b5d556d575a5252&amp;dn=Mission+Impossible+5+-+Rogue+Nation+%282015%29+HQTS+-+720p+-+Hindi+D&amp;tr=udp%3A%2F%2Ftracker.openbittorrent.com%3A80&amp;tr=udp%3A%2F%2Fopen.demonii.com%3A1337&amp;tr=udp%3A%2F%2Ftracker.coppersurfer.tk%3A6969&amp;tr=udp%3A%2F%2Fexodus.desync.com%3A6969",
  "seeders": 57,
  "leechers": 26,
  "uploader": "SS132203",
  "files": 3,
  "time": 1439488025,
  "description": "Mission Impossible 5 - Rogue Nation (2015) HQTS - 720p - Hindi Dubbed - x264 - AC3 5.1 (Upmix) -={SPARROW}=-\n &lt;a href=&quot;\nhttp://imgsparrow.co/image/89k&quot; rel=&quot;nofollow&quot; target=&quot;_NEW&quot;&gt;\nhttp://imgsparrow.co/image/89k&lt;/a&gt;\n &lt;a href=&quot;\nhttp://imgsparrow.co/image/9b&quot; rel=&quot;nofollow&quot; target=&quot;_NEW&quot;&gt;\nhttp://imgsparrow.co/image/9b&lt;/a&gt;\n\nInfo : - \n\nFormat                      : Matroska\nFormat version              : Version 4 / Version 2\nFile size                   : 996 MiB\nDuration                    : 2h 3mn\nOverall bit rate            : 1 126 Kbps\n\nVideo\nID                          : 1\nFormat                      : AVC\nFormat/Info                 : Advanced Video Codec\nFormat profile              : &lt;a class=&quot;__cf_email__&quot; href=&quot;/cdn-cgi/l/email-protection&quot; data-cfemail=&quot;82caebe5eac2ceb1acb3&quot;&gt;[email&amp;#160;protected]&lt;/a&gt;&lt;script data-cfhash='f9e31' type=&quot;text/javascript&quot;&gt;\n/* &lt;![CDATA[ */!function(){try{var t=&quot;currentScript&quot;in document?document.currentScript:function(){for(var t=document.getElementsByTagName(&quot;script&quot;),e=t.length;e--;)if(t[e].getAttribute(&quot;data-cfhash&quot;))return t[e]}();if(t&amp;&amp;t.previousSibling){var e,r,n,i,c=t.previousSibling,a=c.getAttribute(&quot;data-cfemail&quot;);if(a){for(e=&quot;&quot;,r=parseInt(a.substr(0,2),16),n=2;a.length-n;n+=2)i=parseInt(a.substr(n,2),16)^r,e+=String.fromCharCode(i);e=document.createTextNode(e),c.parentNode.replaceChild(e,c)}t.parentNode.removeChild(t);}}catch(u){}}()/* ]]&gt; */&lt;/script&gt;\nFormat settings, CABAC      : Yes\nFormat settings, ReFrames   : 4 frames\nCodec ID                    : V_MPEG4/ISO/AVC\nDuration                    : 2h 3mn\nBit rate                    : 900 Kbps\nWidth                       : 1 280 pixels\nHeight                      : 568 pixels\nDisplay aspect ratio        : 2.25:1\nFrame rate mode             : Constant\nFrame rate                  : 29.970 fps\nColor space                 : YUV\nChroma subsampling          : 4:2:0\nBit depth                   : 8 bits\nScan type                   : Progressive\nBits/(Pixel*Frame)          : 0.041\nStream size                 : 778 MiB (78%)\n\nAudio\nID                          : 2\nFormat                      : AC-3\nFormat/Info                 : Audio Coding 3\nMode extension              : CM (complete main)\nFormat settings, Endianness : Big\nCodec ID                    : A_AC3\nDuration                    : 2h 3mn\nBit rate mode               : Constant\nBit rate                    : 224 Kbps\nChannel(s)                  : 6 channels\nChannel positions           : Front: L C R, Side: L R, LFE\nSampling rate               : 48.0 KHz\nCompression mode            : Lossy\nDelay relative to video     : -201ms\nStream size                 : 198 MiB (20%)\nTitle                       : Hindi -={SPARROW}=-\nLanguage                    : Hindi\n\n\nScreens : - \n &lt;a href=&quot;\nhttp://imgsparrow.co/image/84x&quot; rel=&quot;nofollow&quot; target=&quot;_NEW&quot;&gt;\nhttp://imgsparrow.co/image/84x&lt;/a&gt; &lt;a href=&quot;\nhttp://imgsparrow.co/image/84C&quot; rel=&quot;nofollow&quot; target=&quot;_NEW&quot;&gt;\nhttp://imgsparrow.co/image/84C&lt;/a&gt; &lt;a href=&quot;\nhttp://imgsparrow.co/image/841&quot; rel=&quot;nofollow&quot; target=&quot;_NEW&quot;&gt;\nhttp://imgsparrow.co/image/841&lt;/a&gt; &lt;a href=&quot;\nhttp://imgsparrow.co/image/8H6&quot; rel=&quot;nofollow&quot; target=&quot;_NEW&quot;&gt;\nhttp://imgsparrow.co/image/8H6&lt;/a&gt; &lt;a href=&quot;\nhttp://imgsparrow.co/image/8H8&quot; rel=&quot;nofollow&quot; target=&quot;_NEW&quot;&gt;\nhttp://imgsparrow.co/image/8H8&lt;/a&gt; &lt;a href=&quot;\nhttp://imgsparrow.co/image/8H9&quot; rel=&quot;nofollow&quot; target=&quot;_NEW&quot;&gt;\nhttp://imgsparrow.co/image/8H9&lt;/a&gt; &lt;a href=&quot;\nhttp://imgsparrow.co/image/8HL&quot; rel=&quot;nofollow&quot; target=&quot;_NEW&quot;&gt;\nhttp://imgsparrow.co/image/8HL&lt;/a&gt; &lt;a href=&quot;\nhttp://imgsparrow.co/image/8HN&quot; rel=&quot;nofollow&quot; target=&quot;_NEW&quot;&gt;\nhttp://imgsparrow.co/image/8HN&lt;/a&gt; &lt;a href=&quot;\nhttp://imgsparrow.co/image/8Ht&quot; rel=&quot;nofollow&quot; target=&quot;_NEW&quot;&gt;\nhttp://imgsparrow.co/image/8Ht&lt;/a&gt;\n &lt;a href=&quot;\nhttp://imgsparrow.co/image/N2&quot; rel=&quot;nofollow&quot; target=&quot;_NEW&quot;&gt;\nhttp://imgsparrow.co/image/N2&lt;/a&gt;",
  "parsed": {
    "xt": "urn:btih:dec371104e60cdc56f816d0a3b5d556d575a5252",
    "dn": "Mission Impossible 5 - Rogue Nation (2015) HQTS - 720p - Hindi D",
    "tr": [
      "udp://exodus.desync.com:6969",
      "udp://open.demonii.com:1337",
      "udp://tracker.coppersurfer.tk:6969",
      "udp://tracker.openbittorrent.com:80"
    ],
    "infoHash": "dec371104e60cdc56f816d0a3b5d556d575a5252",
    "infoHashBuffer": {
      "type": "Buffer",
      "data": [
        222,
        195,
        113,
        16,
        78,
        96,
        205,
        197,
        111,
        129,
        109,
        10,
        59,
        93,
        85,
        109,
        87,
        90,
        82,
        82
      ]
    },
    "name": "Mission Impossible 5 - Rogue Nation (2015) HQTS - 720p - Hindi D",
    "announce": [
      "udp://exodus.desync.com:6969",
      "udp://open.demonii.com:1337",
      "udp://tracker.coppersurfer.tk:6969",
      "udp://tracker.openbittorrent.com:80"
    ],
    "urlList": []
  },
  "previous": 83,
  "peers": 43,
  "last_updated": "2016-12-25T15:58:54.836Z"
}